<svg xmlns="http://www.w3.org/2000/svg" xmlns:xlink="http://www.w3.org/1999/xlink" width="100" height="100" viewBox="0 0 100 100">
    <defs>
        <path id="a" d="M36.827 2.222L8.006 18.862A15.73 15.73 0 0 0 .139 32.486v33.282c0 5.62 3 10.813 7.867 13.624l28.821 16.64a15.733 15.733 0 0 0 15.732 0l28.821-16.64a15.733 15.733 0 0 0 7.867-13.624V32.485a15.73 15.73 0 0 0-7.867-13.622L52.56 2.222A15.72 15.72 0 0 0 44.693.115c-2.716 0-5.431.702-7.866 2.107z"/>
    </defs>
    <g fill="none" fill-rule="evenodd">
        <g transform="translate(5 .719)">
            <mask id="b" fill="#fff">
                <use xlink:href="#a"/>
            </mask>
            <path fill="#0F186D" d="M56.09 107.15h53.879V41.874H56.09z" mask="url(#b)"/>
            <path fill="#583889" d="M86.478 91.485L59.409 73.347l.129-.357 52.056 5.441.067.37-24.986 12.697z" mask="url(#b)"/>
            <path fill="#583889" d="M111.574 78.626l-52.057-5.442 27.07 18.138z" mask="url(#b)"/>
            <path fill="#582C7D" d="M47.017 106.936l-.177-.264 12.494-33.555.362-.014 15.616 34.464-.184.276z" mask="url(#b)"/>
            <path fill="#582C7D" d="M59.517 73.184l-12.493 33.557 28.11.906z" mask="url(#b)"/>
            <path fill="#583889" d="M74.956 107.729L59.34 73.266l.287-.243 27.07 18.138.05.275-11.451 16.324z" mask="url(#b)"/>
            <path fill="#583889" d="M59.517 73.184l15.618 34.463 11.45-16.324z" mask="url(#b)"/>
            <path fill="#5C518F" d="M59.498 73.38l-.16-.273 12.493-29.021.31-.07 39.56 34.463-.147.342z" mask="url(#b)"/>
            <path fill="#5C518F" d="M72.01 44.162L59.517 73.185l52.056 5.441z" mask="url(#b)"/>
            <path fill="#719560" d="M71.882 44.31l.19-.333 43.728 14.51.13.226-4.166 19.952-.32.108z" mask="url(#b)"/>
            <path fill="#719560" d="M72.01 44.162l39.563 34.464 4.166-19.952z" mask="url(#b)"/>
            <path fill="#719560" d="M71.95 44.349l.006-.374 55.178-16.325.239.256-11.451 30.835-.244.117z" mask="url(#b)"/>
            <path fill="#719560" d="M127.19 27.838L72.01 44.162l43.728 14.512z" mask="url(#b)"/>
            <path fill="#583889" d="M24.06 99.672l-.058-.343 35.4-26.3.3.224-12.496 33.556-.242.117z" mask="url(#b)"/>
            <path fill="#583889" d="M59.517 73.184L24.12 99.485l22.904 7.256z" mask="url(#b)"/>
            <path fill="#5C518F" d="M23.937 99.555L17.69 83.231l.138-.26 41.644-9.976.162.347-35.398 26.3z" mask="url(#b)"/>
            <path fill="#5C518F" d="M17.872 83.16l6.248 16.325 35.398-26.3z" mask="url(#b)"/>
            <path fill="#657079" d="M48.935 54.232l.093-.272 22.905-9.977.258.257-12.493 29.022-.352.017z" mask="url(#b)"/>
            <path fill="#657079" d="M72.01 44.162L49.106 54.14l10.411 19.046z" mask="url(#b)"/>
            <path fill="#626681" d="M17.74 83.018l31.233-29.023.305.05 10.411 19.046-.126.284-41.645 9.976z" mask="url(#b)"/>
            <path fill="#626681" d="M49.106 54.139L17.873 83.16l41.644-9.976z" mask="url(#b)"/>
            <path fill="#77A853" d="M47.996 35.276l-.048-.34 22.903-17.23.314.148 1.041 26.301-.264.19z" mask="url(#b)"/>
            <path fill="#77A853" d="M70.97 17.862L48.065 35.093l23.946 9.07z" mask="url(#b)"/>
            <path fill="#6A816E" d="M48.91 54.15l-1.04-19.046.264-.194 23.946 9.07.01.362-22.906 9.977z" mask="url(#b)"/>
            <path fill="#6A816E" d="M72.01 44.162l-23.946-9.068 1.042 19.045z" mask="url(#b)"/>
            <path fill="#6A816E" d="M17.678 83.137l4.165-34.463.232-.169 27.07 5.443.094.334-31.234 29.022z" mask="url(#b)"/>
            <path fill="#6A816E" d="M49.106 54.139l-27.068-5.442-4.165 34.464z" mask="url(#b)"/>
            <path fill="#719560" d="M71.815 44.17l-1.041-26.3.23-.2 56.22 9.976.021.38L72.066 44.35z" mask="url(#b)"/>
            <path fill="#719560" d="M70.97 17.862l1.04 26.3 55.18-16.324z" mask="url(#b)"/>
            <path fill="#B7CD3E" d="M70.935 18.054l-.127-.303L83.302-.39l.268-.053 43.726 28.115-.14.357z" mask="url(#b)"/>
            <path fill="#B7CD3E" d="M83.463-.277L70.97 17.861l56.22 9.977z" mask="url(#b)"/>
            <path fill="#605C87" d="M-16.531 89.7l.011-.382 34.357-6.348.218.121 6.247 16.326-.23.26z" mask="url(#b)"/>
            <path fill="#605C87" d="M-16.484 89.51l40.604 9.976-6.248-16.326z" mask="url(#b)"/>
            <path fill="#719560" d="M21.998 48.89l-.052-.366L47.974 34.92l.287.162 1.04 19.046-.233.203z" mask="url(#b)"/>
            <path fill="#719560" d="M48.065 35.093L22.037 48.697l27.069 5.441z" mask="url(#b)"/>
            <path fill="#77A853" d="M21.843 48.674l3.123-25.394.284-.15 22.905 11.79v.347L22.128 48.87z" mask="url(#b)"/>
            <path fill="#77A853" d="M25.16 23.303l-3.123 25.394 26.027-13.604z" mask="url(#b)"/>
            <path fill="#7FB947" d="M25.071 23.477l.066-.368 45.81-5.442.14.351L48.183 35.25l-.207.017z" mask="url(#b)"/>
            <path fill="#7FB947" d="M70.97 17.862l-45.81 5.44 22.905 11.791z" mask="url(#b)"/>
            <path fill="#687775" d="M-16.666 89.438l10.41-26.302.308-.077 23.945 19.952-.089.342-34.358 6.35z" mask="url(#b)"/>
            <path fill="#687775" d="M-6.073 63.208L-16.484 89.51l34.357-6.348z" mask="url(#b)"/>
            <path fill="#719560" d="M-6.198 63.359l.034-.324 28.111-14.51.284.196-4.164 34.464-.319.126z" mask="url(#b)"/>
            <path fill="#719560" d="M22.037 48.697l-28.11 14.51 23.945 19.954z" mask="url(#b)"/>
            <path fill="#77A853" d="M-6.269 63.195l2.083-29.929.295-.155 26.028 15.42-.01.34-28.11 14.511z" mask="url(#b)"/>
            <path fill="#77A853" d="M-3.991 33.28l-2.082 29.928 28.11-14.51z" mask="url(#b)"/>
            <path fill="#AACA40" d="M25.027 23.16L58.343-7.677l.309.058 12.493 25.394-.152.28-45.81 5.442z" mask="url(#b)"/>
            <path fill="#AACA40" d="M58.476-7.533L25.161 23.304 70.97 17.86z" mask="url(#b)"/>
            <path fill="#C6D23C" d="M70.794 17.948L58.3-7.446l.23-.274L83.519-.465l.107.298-12.494 18.14z" mask="url(#b)"/>
            <path fill="#C6D23C" d="M83.463-.277L58.477-7.533 70.97 17.861z" mask="url(#b)"/>
            <path fill="#7FB947" d="M-4.092 33.447l.037-.352 29.152-9.977.258.209-3.123 25.395-.295.144z" mask="url(#b)"/>
            <path fill="#7FB947" d="M25.16 23.303L-3.99 33.28l26.027 15.417z" mask="url(#b)"/>
            <path fill="#AACA40" d="M-4.187 33.28V6.071l.295-.17L25.26 23.135l-.037.354-29.15 9.976z" mask="url(#b)"/>
            <path fill="#AACA40" d="M-3.991 6.071V33.28l29.15-9.975z" mask="url(#b)"/>
            <path fill="#C9D63B" d="M24.966 23.322L21.84-9.328l.205-.214 36.44 1.815.122.338-33.315 30.835z" mask="url(#b)"/>
            <path fill="#C9D63B" d="M58.476-7.533L22.037-9.346l3.124 32.65z" mask="url(#b)"/>
            <path fill="#D1D739" d="M-4.09 6.24l-.002-.336L21.937-9.515l.295.15 3.122 32.65-.294.186z" mask="url(#b)"/>
            <path fill="#D1D739" d="M22.037-9.347L-3.99 6.071 25.16 23.303z" mask="url(#b)"/>
        </g>
        <g fill="#FFF">
            <path d="M68.265 54.733a2.444 2.444 0 0 1-2.444 2.443H41.385a2.444 2.444 0 1 1 0-4.887h24.436a2.444 2.444 0 0 1 2.444 2.444M36.497 54.733a2.444 2.444 0 0 1-2.444 2.443h-.488a2.444 2.444 0 1 1 0-4.887h.488a2.444 2.444 0 0 1 2.444 2.444M68.265 64.507a2.444 2.444 0 0 1-2.444 2.444H41.385a2.444 2.444 0 1 1 0-4.887h24.436a2.444 2.444 0 0 1 2.444 2.443M36.497 64.507a2.444 2.444 0 0 1-2.444 2.444h-.488a2.444 2.444 0 1 1 0-4.887h.488a2.444 2.444 0 0 1 2.444 2.443M68.265 44.958a2.444 2.444 0 0 1-2.444 2.444H41.385a2.444 2.444 0 1 1 0-4.888h24.436a2.444 2.444 0 0 1 2.444 2.444M36.497 44.958a2.444 2.444 0 0 1-2.444 2.444h-.488a2.444 2.444 0 1 1 0-4.888h.488a2.444 2.444 0 0 1 2.444 2.444M68.265 35.183a2.444 2.444 0 0 1-2.444 2.444H41.385a2.444 2.444 0 1 1 0-4.888h24.436a2.445 2.445 0 0 1 2.444 2.444M36.497 35.183a2.444 2.444 0 0 1-2.444 2.444h-.488a2.444 2.444 0 1 1 0-4.888h.488a2.445 2.445 0 0 1 2.444 2.444"/>
        </g>
    </g>
</svg>
